<svg width="41" height="41" viewBox="0 0 41 41" fill="none" xmlns="http://www.w3.org/2000/svg">
<path d="M14.3955 34.4219C27.8501 43.9492 36.5773 37.6946 38.6137 31.9492C39.0501 30.7128 38.3228 29.4764 37.0864 29.1855C34.6864 28.6037 32.141 27.2219 29.9591 26.2764C28.941 25.8401 27.7046 26.2764 27.1955 27.2946L25.5228 30.0583C25.1591 30.7855 24.2864 31.2219 23.4864 30.931C21.5228 30.3492 18.6864 28.8946 14.7591 24.9674C10.8319 21.0401 9.45005 18.131 8.79551 16.2401C8.57733 15.4401 8.94096 14.5673 9.66823 14.2037L12.4319 12.6037C13.4501 12.0946 13.8864 10.8583 13.4501 9.84008C12.4319 7.58553 11.0501 5.1128 10.541 2.7128C10.2501 1.47644 8.94096 0.749166 7.77733 1.18553C2.03187 3.14917 -4.22268 11.8764 5.3046 25.331C7.77733 28.8946 10.9046 31.9492 14.3955 34.4219Z" fill="#FFC527"/>
<path d="M20.7226 20.022C20.5772 20.022 20.359 20.022 20.2135 19.9493C19.7045 19.7311 19.4135 19.2947 19.4135 18.7856L19.3408 6.71289C19.3408 5.62198 19.7772 4.67653 20.5045 3.87653C21.2317 3.14925 22.2499 2.71289 23.2681 2.71289H35.9954C38.1772 2.71289 39.9226 4.45835 39.9226 6.64016V12.3129C39.9226 14.4947 38.1772 16.2402 35.9954 16.2402H25.2317L21.5954 19.6583C21.3772 19.9493 21.0135 20.022 20.7226 20.022ZM23.2681 4.16744C22.6135 4.16744 21.959 4.45835 21.5226 4.89471C21.0863 5.4038 20.7954 5.98562 20.7954 6.64016L20.8681 18.422L24.4317 15.0038C24.5772 14.8583 24.7226 14.7856 24.9408 14.7856H35.9954C37.3772 14.7856 38.4681 13.6947 38.4681 12.3129V6.64016C38.4681 5.25835 37.3772 4.16744 35.9954 4.16744H23.2681Z" fill="#222222"/>
<path d="M31.0501 9.84019C31.341 9.11292 30.9774 8.24019 30.2501 7.87655C29.5228 7.51292 28.6501 7.94928 28.2865 8.67655C27.9956 9.40383 28.3592 10.2766 29.0865 10.6402C29.8137 10.9311 30.6865 10.5675 31.0501 9.84019Z" fill="#222222"/>
<path d="M25.3772 9.84018C25.6682 9.11291 25.3045 8.24018 24.5772 7.87655C23.85 7.58564 22.9772 7.94928 22.6136 8.67655C22.3227 9.40382 22.6863 10.2765 23.4136 10.6402C24.1409 11.0038 25.0863 10.5675 25.3772 9.84018Z" fill="#222222"/>
<path d="M35.6316 10.713C36.4316 10.4948 36.9407 9.69478 36.7225 8.96751C36.5043 8.16751 35.7043 7.65842 34.977 7.8766C34.177 8.09478 33.6679 8.89478 33.8861 9.62206C34.0316 10.4221 34.8316 10.8584 35.6316 10.713Z" fill="#222222"/>
</svg>
